<svg width="9" height="9" viewBox="0 0 9 9" fill="none" xmlns="http://www.w3.org/2000/svg">
<path d="M4.8 8.472C4.62933 8.472 4.50133 8.424 4.416 8.328C4.33067 8.232 4.288 8.104 4.288 7.944V4.904H1.296C1.136 4.904 1.008 4.86133 0.912 4.776C0.826667 4.69067 0.784 4.568 0.784 4.408C0.784 4.248 0.826667 4.12533 0.912 4.04C1.008 3.95467 1.136 3.912 1.296 3.912H4.288V0.967999C4.288 0.797333 4.33067 0.669333 4.416 0.584C4.50133 0.488 4.62933 0.44 4.8 0.44C4.97067 0.44 5.09867 0.488 5.184 0.584C5.26933 0.669333 5.312 0.797333 5.312 0.967999V3.912H8.304C8.464 3.912 8.58667 3.95467 8.672 4.04C8.768 4.12533 8.816 4.248 8.816 4.408C8.816 4.568 8.768 4.69067 8.672 4.776C8.58667 4.86133 8.464 4.904 8.304 4.904H5.312V7.944C5.312 8.104 5.26933 8.232 5.184 8.328C5.09867 8.424 4.97067 8.472 4.8 8.472Z" fill="black"/>
</svg>
